<svg width="18" height="14" viewBox="0 0 18 14" fill="none" xmlns="http://www.w3.org/2000/svg">
<path d="M14.698 0H6.26368C6.20167 0 6.13965 0 6.07763 0C5.9536 0 5.82957 0 5.64352 0C3.65898 0 2.04655 1.6621 2.04655 3.70776C2.04655 5.24201 2.91478 6.58448 4.21713 7.15982C1.79848 7.79909 0 10.1644 0 12.9772C0 13.0411 1.38618e-08 13.105 0.0620167 13.169C0.0620167 13.2329 0 13.2968 0 13.3607C0 13.6804 0.310083 14 0.620167 14H17.3647C17.5507 14 17.6748 13.9361 17.7988 13.8082C17.9228 13.6804 17.9848 13.5525 17.9848 13.3607V3.70776C18.1709 1.72603 16.6205 0.0639269 14.698 0ZM3.3489 3.77169C3.3489 2.42922 4.40318 1.34247 5.70553 1.34247C7.00788 1.34247 8.06217 2.42922 8.06217 3.77169C8.06217 5.11416 7.00788 6.20091 5.70553 6.20091C4.40318 6.20091 3.3489 5.11416 3.3489 3.77169ZM1.30235 12.7854C1.36437 10.2922 3.22487 8.3105 5.51948 8.3105C7.8141 8.3105 9.6746 10.2922 9.73662 12.7854H1.30235ZM16.8685 12.7854H11.039C10.977 10.1644 9.3025 7.92694 7.00788 7.22375C8.37225 6.71233 9.3025 5.30594 9.3025 3.77169C9.3025 2.81279 8.99242 1.98174 8.43427 1.34247H14.698C15.9383 1.40639 16.9306 2.42922 16.8685 3.77169V12.7854Z" fill="black"/>
<path d="M15.2778 5.49057H15C14.9444 5.32076 14.8889 5.09434 14.7778 4.92453L15 4.69811C15.2222 4.4717 15.2222 4.13208 15 3.90566C14.7778 3.67925 14.4444 3.67925 14.2222 3.90566L14 4.13208C13.8333 4.01887 13.6667 3.96226 13.5 3.90566V3.56604C13.5 3.28302 13.2778 3 12.9444 3C12.6111 3 12.3889 3.28302 12.3889 3.56604V3.90566C12.2222 3.96226 12.0556 4.01887 11.8889 4.13208L11.6111 3.84906C11.3889 3.62264 11 3.67925 10.8333 3.90566C10.6111 4.13208 10.6667 4.5283 10.8889 4.69811L11.1111 4.92453C11 5.09434 10.9444 5.26415 10.8889 5.49057H10.5556C10.2222 5.49057 10 5.71698 10 6.0566C10 6.33962 10.2222 6.62264 10.5556 6.62264H10.8889C10.9444 6.79245 11 6.96226 11.1111 7.13208L10.8889 7.35849C10.6667 7.58491 10.6667 7.92453 10.8889 8.15094C11 8.26415 11.1111 8.32076 11.2778 8.32076C11.4444 8.32076 11.5556 8.26415 11.6667 8.15094L11.8889 7.92453C12.0556 8.03774 12.2222 8.09434 12.4444 8.15094V8.43396C12.4444 8.71698 12.6667 9 13 9C13.2778 9 13.5556 8.77358 13.5556 8.43396V8.09434C13.7778 8.03774 13.9444 7.98113 14.1111 7.86792L14.3333 8.09434C14.4444 8.20755 14.6111 8.26415 14.7222 8.26415C14.8889 8.26415 15 8.20755 15.1111 8.09434C15.3333 7.86793 15.3333 7.5283 15.1111 7.30189L14.8889 7.07547C15 6.90566 15.0556 6.73585 15.1111 6.50943H15.4444C15.7222 6.50943 16 6.22642 16 5.9434C15.8333 5.71698 15.6111 5.49057 15.2778 5.49057ZM12.1667 6.84906C12 6.67925 11.8889 6.39623 11.8889 6.11321C11.8889 5.83019 12 5.54717 12.2222 5.32076C12.3889 5.09434 12.6667 4.98113 12.9444 4.98113C13.2222 4.98113 13.4444 5.09434 13.6667 5.26415C13.8889 5.49057 14 5.71698 14 6C14 6.28302 13.8889 6.50943 13.7222 6.73585C13.5556 6.90566 13.2778 7.01887 13 7.01887C12.6111 7.18868 12.3333 7.01887 12.1667 6.84906Z" fill="black"/>
</svg>
