<svg width="23" height="28" viewBox="0 0 23 28" fill="none" xmlns="http://www.w3.org/2000/svg">
<path d="M19.5228 20.8047C19.9652 20.8047 20.2955 20.6275 20.4956 20.3623C20.6243 20.1919 20.706 19.986 20.7355 19.7669C20.766 19.5383 20.7399 19.2949 20.652 19.0585C20.4834 18.6021 20.0766 18.1813 19.3898 17.9572C18.61 17.7025 18.0006 17.2809 17.5392 16.6394C17.1002 16.0292 16.8142 15.2381 16.6596 14.2158C16.5969 13.8055 16.5987 13.2501 16.6006 12.6015C16.6093 9.94149 16.624 5.48035 11.0384 5.48035C5.45274 5.48035 5.46739 9.94061 5.47619 12.6015C5.47881 13.2499 5.48063 13.8055 5.41717 14.2158C5.26235 15.2381 4.97636 16.0292 4.53757 16.6394C4.07695 17.2817 3.46756 17.7025 2.68699 17.9572C2.00022 18.1815 1.59354 18.6031 1.42476 19.0585C1.33704 19.2949 1.31097 19.5383 1.34128 19.7669C1.36998 19.986 1.45164 20.1919 1.58119 20.3623C1.78108 20.6275 2.11154 20.8047 2.55398 20.8047H19.5236H19.5228ZM13.9916 23.39C14.0777 23.0337 14.4375 22.8137 14.794 22.9007C15.1514 22.9868 15.3703 23.3465 15.2834 23.7031C15.0487 24.6722 14.4923 25.5138 13.7351 26.1093C12.991 26.6934 12.0547 27.042 11.0369 27.042C10.0199 27.042 9.08288 26.6933 8.33873 26.1093C7.5816 25.5146 7.02518 24.6724 6.79053 23.7031C6.70443 23.3457 6.92352 22.9868 7.27985 22.9007C7.63617 22.8146 7.99616 23.0337 8.08225 23.39C8.24475 24.061 8.63242 24.6461 9.16194 25.0617C9.67733 25.4667 10.3285 25.7085 11.0369 25.7085C11.7453 25.7085 12.3965 25.4667 12.9119 25.0617C13.4413 24.6461 13.829 24.0612 13.9916 23.39V23.39ZM7.90478 4.62961V3.13273C7.90478 2.27051 8.25767 1.48731 8.82438 0.919599C9.39193 0.352048 10.1753 0 11.0375 0C11.8997 0 12.6829 0.352084 13.2506 0.919599C13.8182 1.48715 14.1702 2.27051 14.1702 3.13273V4.62961C17.9498 6.0066 17.9369 10.018 17.929 12.6009C17.9272 13.1807 17.9256 13.6779 17.9777 14.0169C18.1012 14.8306 18.3098 15.4337 18.6184 15.8624C18.9036 16.2596 19.2939 16.5239 19.8024 16.6898C20.9229 17.0559 21.6045 17.7904 21.9034 18.5988C22.0651 19.037 22.1119 19.4985 22.0545 19.9385C21.9955 20.387 21.8268 20.8112 21.56 21.1649C21.1192 21.7474 20.4255 22.1385 19.5241 22.1385H2.55445C1.65301 22.1385 0.959371 21.7474 0.518535 21.1649C0.251746 20.812 0.0829767 20.3877 0.0239605 19.9385C-0.0342485 19.4987 0.0126416 19.037 0.175143 18.5988C0.474068 17.7896 1.15559 17.0551 2.2761 16.6898C2.78462 16.5239 3.17407 16.2587 3.4601 15.8624C3.76872 15.4329 3.9765 14.8306 4.10081 14.0169C4.15295 13.6779 4.15114 13.1807 4.14952 12.6009C4.14083 10.0183 4.1287 6.00645 7.90827 4.62961H7.90478ZM12.8362 4.28541V3.13277C12.8362 2.639 12.6337 2.18968 12.3077 1.86267C11.9816 1.53666 11.5313 1.33414 11.0376 1.33414C10.543 1.33414 10.0935 1.53666 9.76747 1.86267C9.44145 2.18949 9.23893 2.639 9.23893 3.13277V4.28541C9.7788 4.19506 10.3768 4.14635 11.0374 4.14635C11.6989 4.14635 12.2961 4.19506 12.8358 4.28541H12.8362Z" fill="#292D32"/>
<ellipse cx="16" cy="8" rx="3" ry="3" fill="#EE0F0F"/>
</svg>
